<?xml version="1.0" encoding="utf-8"?>
<!-- Generator: Adobe Illustrator 21.0.0, SVG Export Plug-In . SVG Version: 6.00 Build 0)  -->
<svg version="1.1" id="Layer_1" xmlns="http://www.w3.org/2000/svg" xmlns:xlink="http://www.w3.org/1999/xlink" x="0px" y="0px"
	 viewBox="0 0 189.5 41.2" style="enable-background:new 0 0 189.5 41.2;" xml:space="preserve">
<style type="text/css">
	.st0{fill:#FFFFFF;}
</style>
<g>
	<g>
		<path class="st0" d="M64.7,7.3h-6.5l-7,22.9h4.5l1.4-4.8h8.6l1.5,4.8h4.5L64.7,7.3z M58.4,21.4l3.1-10l3.1,10H58.4z"/>
		<path class="st0" d="M89.3,17c-0.7-1.4-1.6-2.4-2.8-3.2c-1.2-0.8-2.6-1.2-4.3-1.2c-1.6,0-3,0.4-4.1,1.2C78,13.9,77.9,14,77.8,14
			v-1H74v24.8h4.4v-8.2c1.1,0.7,2.5,1.1,4.1,1.1s3-0.4,4.1-1.2c1.2-0.8,2.1-1.9,2.8-3.2c0.7-1.4,1-2.9,1-4.6
			C90.3,19.9,90,18.3,89.3,17z M85.3,24.2C85,25,84.6,25.7,84,26.1s-1.4,0.7-2.3,0.7c-1,0-1.7-0.2-2.3-0.7c-0.6-0.4-1-1-1.2-1.8
			s-0.4-1.7-0.4-2.7s0.1-1.9,0.4-2.7c0.2-0.8,0.7-1.4,1.2-1.8c0.6-0.4,1.3-0.7,2.2-0.7c1,0,1.8,0.2,2.4,0.7s1.1,1.1,1.4,1.9
			s0.4,1.7,0.4,2.6C85.7,22.6,85.6,23.5,85.3,24.2z"/>
		<path class="st0" d="M108.5,17c-0.7-1.4-1.6-2.4-2.8-3.2c-1.2-0.8-2.6-1.2-4.3-1.2c-1.6,0-3,0.4-4.1,1.2C97.2,13.9,97.1,14,97,14
			v-1h-3.8v24.8h4.4v-8.2c1.1,0.7,2.5,1.1,4.1,1.1s3-0.4,4.2-1.2c1.2-0.8,2.1-1.9,2.8-3.2c0.7-1.4,1-2.9,1-4.6
			C109.5,19.9,109.2,18.3,108.5,17z M104.5,24.2c-0.3,0.8-0.7,1.4-1.3,1.9c-0.6,0.5-1.4,0.7-2.3,0.7c-1,0-1.7-0.2-2.3-0.7
			c-0.6-0.4-1-1-1.2-1.8c-0.3-0.8-0.4-1.7-0.4-2.7s0.1-1.9,0.4-2.7c0.2-0.8,0.7-1.4,1.2-1.8c0.6-0.4,1.3-0.7,2.2-0.7
			c1,0,1.8,0.2,2.4,0.7s1.1,1.1,1.4,1.9s0.5,1.7,0.5,2.6C104.9,22.6,104.8,23.5,104.5,24.2z"/>
		<path class="st0" d="M137.4,18.9v11.3h-4.3V20.1c0-1.1-0.3-2-0.8-2.6s-1.3-0.9-2.2-0.9c-0.6,0-1.1,0.1-1.6,0.4
			c-0.4,0.3-0.8,0.7-1,1.2s-0.4,1.1-0.4,1.7v10.4h-4.3V20.1c0-1.1-0.3-2-0.8-2.6s-1.3-0.9-2.2-0.9c-0.9,0-1.6,0.3-2.2,0.9
			c-0.5,0.6-0.8,1.4-0.8,2.4v10.4h-4.4V13h3.8v1.9c0.5-0.6,1.1-1.1,1.8-1.5c0.9-0.5,2-0.8,3.2-0.8c1.3,0,2.4,0.3,3.3,0.9
			c0.7,0.5,1.3,1.1,1.7,1.8c0.5-0.8,1.2-1.5,2.1-1.9c0.9-0.5,2-0.8,3.1-0.8c2,0,3.5,0.6,4.5,1.7C136.9,15.5,137.4,17,137.4,18.9z"/>
		<path class="st0" d="M156.3,22.8c0.2-2.1,0-3.9-0.6-5.4s-1.5-2.7-2.8-3.6c-1.3-0.9-2.8-1.3-4.6-1.3c-1.7,0-3.2,0.4-4.5,1.2
			s-2.3,1.9-3.1,3.2c-0.7,1.4-1.1,3-1.1,4.9c0,1.7,0.4,3.2,1.1,4.6c0.8,1.3,1.8,2.4,3.2,3.1c1.3,0.8,2.9,1.2,4.6,1.2
			c1.7,0,3.2-0.4,4.6-1.3c1.4-0.9,2.4-2.1,3.1-3.7l-4.3-1.2c-0.3,0.7-0.8,1.2-1.4,1.6c-0.6,0.4-1.3,0.6-2.2,0.6
			c-1.3,0-2.4-0.4-3.1-1.3c-0.5-0.6-0.8-1.5-1-2.5h12.1V22.8z M144.4,19.6c0.2-0.8,0.5-1.4,0.9-2c0.7-0.9,1.8-1.4,3.2-1.4
			c1.3,0,2.2,0.4,2.7,1.2c0.4,0.5,0.6,1.2,0.7,2.2C151.9,19.6,144.4,19.6,144.4,19.6z"/>
		<path class="st0" d="M175,22.8c0.2-2.1,0-3.9-0.6-5.4s-1.5-2.7-2.8-3.6c-1.3-0.9-2.8-1.3-4.6-1.3c-1.7,0-3.2,0.4-4.5,1.2
			s-2.3,1.9-3.1,3.2c-0.7,1.4-1.1,3-1.1,4.9c0,1.7,0.4,3.2,1.1,4.6c0.7,1.3,1.8,2.4,3.1,3.1c1.3,0.8,2.9,1.2,4.7,1.2
			c1.7,0,3.2-0.4,4.6-1.3c1.4-0.9,2.4-2.1,3.1-3.7l-4.3-1.2c-0.3,0.7-0.8,1.2-1.4,1.6c-0.6,0.4-1.3,0.6-2.2,0.6
			c-1.3,0-2.4-0.4-3.1-1.3c-0.5-0.6-0.8-1.5-1-2.5H175V22.8z M163.1,19.6c0.2-0.8,0.5-1.4,0.9-2c0.7-0.9,1.8-1.4,3.2-1.4
			c1.3,0,2.2,0.4,2.7,1.2c0.4,0.5,0.6,1.2,0.7,2.2C170.6,19.6,163.1,19.6,163.1,19.6z"/>
		<path class="st0" d="M183.3,16.4v6.3c0,0.7,0,1.3,0,1.8s0.1,1,0.3,1.3c0.4,0.6,1,0.9,1.8,1s1.8,0,2.8-0.1v3.6
			c-1.2,0.2-2.4,0.3-3.5,0.3c-1.2,0-2.2-0.2-3.1-0.6c-0.9-0.4-1.6-1-2.1-1.8c-0.4-0.8-0.6-1.6-0.7-2.4c0-0.8,0-1.7,0-2.8v-6.6H176
			V13h2.9V8.3h4.3V13h5v3.3h-4.9V16.4z"/>
	</g>
	<path class="st0" d="M21.2,0.7c-11,0-19.9,8.9-19.9,19.9s8.9,19.9,19.9,19.9s19.9-8.9,19.9-19.9S32.2,0.7,21.2,0.7z M16.8,13.7h8.7
		c0.8,0,1.4,0.6,1.4,1.4c0,0.8-0.6,1.4-1.4,1.4h-8.7c-0.8,0-1.4-0.6-1.4-1.4C15.4,14.3,16,13.7,16.8,13.7z M25.5,27.7h-8.7
		c-0.8,0-1.4-0.6-1.4-1.4s0.6-1.6,1.4-1.6h8.7c0.8,0,1.4,0.6,1.4,1.4S26.3,27.7,25.5,27.7z M30,22H12.3c-0.8,0-1.4-0.6-1.4-1.4
		s0.6-1.4,1.4-1.4H30c0.8,0,1.4,0.6,1.4,1.4S30.8,22,30,22z"/>
</g>
</svg>
