<?xml version="1.0" encoding="utf-8"?>
<!-- Generator: Adobe Illustrator 21.0.0, SVG Export Plug-In . SVG Version: 6.00 Build 0)  -->
<svg version="1.1" id="Layer_1" xmlns="http://www.w3.org/2000/svg" xmlns:xlink="http://www.w3.org/1999/xlink" x="0px" y="0px"
	 viewBox="0 0 52.2 44.3" style="enable-background:new 0 0 52.2 44.3;" xml:space="preserve">
<style type="text/css">
	.st0{fill:#5034FC;}
</style>
<path class="st0" d="M26.1,1.1C14.5,1.1,5,10.5,5,22.1s9.4,21.1,21.1,21.1s21.1-9.4,21.1-21.1S37.7,1.1,26.1,1.1z M21.5,14.8h9.2
	c0.8,0,1.5,0.6,1.5,1.5c0,0.8-0.6,1.5-1.5,1.5h-9.2c-0.8,0-1.5-0.6-1.5-1.5C20,15.5,20.7,14.8,21.5,14.8z M30.7,29.7h-9.2
	c-0.8,0-1.5-0.6-1.5-1.4s0.6-1.7,1.5-1.7h9.2c0.8,0,1.5,0.6,1.5,1.5S31.5,29.7,30.7,29.7z M35.5,23.6H16.7c-0.8,0-1.5-0.6-1.5-1.5
	s0.6-1.5,1.5-1.5h18.8c0.8,0,1.5,0.6,1.5,1.5S36.3,23.6,35.5,23.6z"/>
</svg>
