<?xml version="1.0" encoding="utf-8"?>
<!-- Generator: Adobe Illustrator 21.0.0, SVG Export Plug-In . SVG Version: 6.00 Build 0)  -->
<svg version="1.1" id="Layer_1" xmlns="http://www.w3.org/2000/svg" xmlns:xlink="http://www.w3.org/1999/xlink" x="0px" y="0px"
	 viewBox="0 0 172 40" style="enable-background:new 0 0 172 40;" xml:space="preserve">
<style type="text/css">
	.st0{fill:#989898;}
</style>
<g>
	<path class="st0" d="M55-1.2C55-1.2,55-1.2,55-1.2l-0.3,0c0,0,0,0,0,0H55z"/>
	<g>
		<g>
			<path class="st0" d="M74.4,17.3c0.2,0.3,0.4,0.6,0.4,1.1c0,0.5-0.1,0.8-0.4,1.1c-0.3,0.2-0.6,0.4-1.1,0.4h-1.9v-3h1.9
				C73.8,16.9,74.2,17,74.4,17.3z"/>
			<path class="st0" d="M65.8,1.2c-3.5,0-6.7,0.9-9.5,2.6C51.7,5.7,48,6.2,45.8,6.4H39c-1.5,0-2.8,1.2-2.8,2.8
				c0,1.5,1.3,2.8,2.8,2.8h5.2v0c1.4,0.1,2.6,1.3,2.6,2.8c0,1.5-1.2,2.7-2.6,2.8v0H31.7c-1.5,0-2.8,1.3-2.8,2.8
				c0,1.5,1.3,2.8,2.8,2.8h9.6c1.5,0,2.8,1.3,2.8,2.8c0,1.4-1.1,2.6-2.5,2.8h-4c-0.1,0-0.2,0-0.3,0c-1.4,0.1-2.5,1.3-2.5,2.8
				c0,1.5,1.3,2.8,2.8,2.8h10.3c1.7,0.2,4.3,0.7,7,2.1c3.1,2.1,6.8,3.4,10.9,3.4c10.6,0,19.2-8.6,19.2-19.2
				C85,9.8,76.4,1.2,65.8,1.2z M66.4,14.9l-1.8,11c0,0.2-0.1,0.3-0.2,0.4s-0.3,0.2-0.5,0.2h-1.7c-0.2,0-0.3,0-0.4-0.1
				s-0.2-0.2-0.2-0.3l-1.7-4.8L58.1,26c0,0.1-0.1,0.2-0.2,0.3s-0.2,0.1-0.4,0.1h-1.7c-0.2,0-0.4-0.1-0.5-0.2
				c-0.1-0.1-0.2-0.2-0.2-0.4l-1.8-11c0,0,0-0.1,0-0.1c0-0.1,0-0.2,0.1-0.2c0.1-0.1,0.2-0.1,0.2-0.1h2.2c0.3,0,0.5,0.1,0.5,0.4
				l1,6.5l1.2-3.8c0.1-0.3,0.3-0.5,0.6-0.5h1.3c0.3,0,0.5,0.2,0.6,0.5l1.2,3.7l1.1-6.5c0-0.1,0.1-0.2,0.2-0.3
				c0.1-0.1,0.2-0.1,0.4-0.1H66c0.1,0,0.2,0,0.3,0.1c0.1,0.1,0.1,0.2,0.1,0.2V14.9z M76.9,21.3c-0.8,0.6-2,1-3.5,1h-2V26
				c0,0.1,0,0.2-0.1,0.3c-0.1,0.1-0.2,0.1-0.3,0.1h-2.5c-0.1,0-0.2,0-0.3-0.1c-0.1-0.1-0.1-0.2-0.1-0.3V14.9c0-0.1,0-0.2,0.1-0.3
				c0.1-0.1,0.2-0.1,0.3-0.1h4.9c1.5,0,2.7,0.3,3.5,1c0.8,0.7,1.3,1.7,1.3,3C78.1,19.7,77.7,20.7,76.9,21.3z"/>
			<circle class="st0" cx="30.6" cy="9.1" r="2.9"/>
			<circle class="st0" cx="22.2" cy="20.3" r="2.9"/>
			<circle class="st0" cx="29.7" cy="31.3" r="2.9"/>
		</g>
	</g>
	<g>
		<path class="st0" d="M92.3,18.9c-0.1-0.1-0.1-0.2-0.1-0.3v-7.9h-2.7c-0.1,0-0.2,0-0.3-0.1c-0.1-0.1-0.1-0.2-0.1-0.3V8.5
			c0-0.1,0-0.2,0.1-0.3c0.1-0.1,0.2-0.1,0.3-0.1h8.4c0.1,0,0.2,0,0.3,0.1c0.1,0.1,0.1,0.2,0.1,0.3v1.7c0,0.1,0,0.2-0.1,0.3
			c-0.1,0.1-0.2,0.1-0.3,0.1h-2.7v7.9c0,0.1,0,0.2-0.1,0.3c-0.1,0.1-0.2,0.1-0.3,0.1h-2.1C92.5,19,92.4,18.9,92.3,18.9z"/>
		<path class="st0" d="M99.7,18.9c-0.1-0.1-0.1-0.2-0.1-0.3v-10c0-0.1,0-0.2,0.1-0.3c0.1-0.1,0.2-0.1,0.3-0.1h2.1
			c0.1,0,0.2,0,0.3,0.1c0.1,0.1,0.1,0.2,0.1,0.3v3.7h3.6V8.5c0-0.1,0-0.2,0.1-0.3c0.1-0.1,0.2-0.1,0.3-0.1h2.1c0.1,0,0.2,0,0.3,0.1
			c0.1,0.1,0.1,0.2,0.1,0.3v10c0,0.1,0,0.2-0.1,0.3c-0.1,0.1-0.2,0.1-0.3,0.1h-2.1c-0.1,0-0.2,0-0.3-0.1c-0.1-0.1-0.1-0.2-0.1-0.3
			v-3.8h-3.6v3.8c0,0.1,0,0.2-0.1,0.3c-0.1,0.1-0.2,0.1-0.3,0.1H100C99.9,19,99.8,18.9,99.7,18.9z"/>
		<path class="st0" d="M111.3,18.9c-0.1-0.1-0.1-0.2-0.1-0.3v-10c0-0.1,0-0.2,0.1-0.3c0.1-0.1,0.2-0.1,0.3-0.1h7.3
			c0.1,0,0.2,0,0.3,0.1c0.1,0.1,0.1,0.2,0.1,0.3v1.5c0,0.1,0,0.2-0.1,0.3c-0.1,0.1-0.2,0.1-0.3,0.1H114v2h4.5c0.1,0,0.2,0,0.3,0.1
			c0.1,0.1,0.1,0.2,0.1,0.3v1.4c0,0.1,0,0.2-0.1,0.3c-0.1,0.1-0.2,0.1-0.3,0.1H114v2h5c0.1,0,0.2,0,0.3,0.1c0.1,0.1,0.1,0.2,0.1,0.3
			v1.5c0,0.1,0,0.2-0.1,0.3c-0.1,0.1-0.2,0.1-0.3,0.1h-7.4C111.5,19,111.4,18.9,111.3,18.9z"/>
		<path class="st0" d="M121.2,18.9c-0.1-0.1-0.1-0.2-0.1-0.3v-10c0-0.1,0-0.2,0.1-0.3c0.1-0.1,0.2-0.1,0.3-0.1h1.7
			c0.3,0,0.4,0.1,0.6,0.3l2.7,4.8l2.7-4.8c0.1-0.2,0.3-0.3,0.6-0.3h1.7c0.1,0,0.2,0,0.3,0.1c0.1,0.1,0.1,0.2,0.1,0.3v10
			c0,0.1,0,0.2-0.1,0.3c-0.1,0.1-0.2,0.1-0.3,0.1h-2c-0.1,0-0.2,0-0.3-0.1c-0.1-0.1-0.1-0.2-0.1-0.3V13l-1.7,3.1
			c-0.1,0.2-0.3,0.4-0.5,0.4h-0.8c-0.2,0-0.4-0.1-0.5-0.4l-1.7-3.1v5.6c0,0.1,0,0.2-0.1,0.3c-0.1,0.1-0.2,0.1-0.3,0.1h-1.9
			C121.4,19,121.3,18.9,121.2,18.9z"/>
		<path class="st0" d="M134.1,18.9c-0.1-0.1-0.1-0.2-0.1-0.3v-10c0-0.1,0-0.2,0.1-0.3c0.1-0.1,0.2-0.1,0.3-0.1h7.3
			c0.1,0,0.2,0,0.3,0.1c0.1,0.1,0.1,0.2,0.1,0.3v1.5c0,0.1,0,0.2-0.1,0.3c-0.1,0.1-0.2,0.1-0.3,0.1h-4.9v2h4.5c0.1,0,0.2,0,0.3,0.1
			c0.1,0.1,0.1,0.2,0.1,0.3v1.4c0,0.1,0,0.2-0.1,0.3c-0.1,0.1-0.2,0.1-0.3,0.1h-4.5v2h5c0.1,0,0.2,0,0.3,0.1
			c0.1,0.1,0.1,0.2,0.1,0.3v1.5c0,0.1,0,0.2-0.1,0.3c-0.1,0.1-0.2,0.1-0.3,0.1h-7.4C134.3,19,134.2,18.9,134.1,18.9z"/>
		<path class="st0" d="M145.4,18.7c-0.7-0.3-1.2-0.7-1.6-1.1c-0.4-0.5-0.6-1-0.6-1.5c0-0.1,0-0.2,0.1-0.2c0.1-0.1,0.1-0.1,0.2-0.1
			h2.1c0.1,0,0.2,0,0.3,0.1c0.1,0,0.2,0.1,0.3,0.2c0.1,0.2,0.3,0.5,0.6,0.6c0.3,0.2,0.7,0.2,1.1,0.2c0.6,0,1-0.1,1.3-0.3
			c0.3-0.2,0.4-0.4,0.4-0.7c0-0.2-0.1-0.4-0.2-0.5c-0.2-0.1-0.4-0.3-0.7-0.4c-0.3-0.1-0.8-0.2-1.5-0.4c-1.2-0.2-2.2-0.6-2.8-1.1
			c-0.6-0.5-0.9-1.2-0.9-2.2c0-0.6,0.2-1.2,0.5-1.7c0.4-0.5,0.9-0.9,1.5-1.2c0.7-0.3,1.4-0.4,2.3-0.4c0.9,0,1.7,0.2,2.4,0.5
			c0.7,0.3,1.2,0.7,1.5,1.2c0.4,0.5,0.5,0.9,0.6,1.4c0,0.1,0,0.2-0.1,0.2c-0.1,0.1-0.1,0.1-0.2,0.1h-2.2c-0.2,0-0.4-0.1-0.5-0.3
			c-0.1-0.2-0.2-0.4-0.5-0.5c-0.3-0.1-0.6-0.2-1-0.2c-0.4,0-0.8,0.1-1,0.2c-0.2,0.2-0.4,0.4-0.4,0.7c0,0.3,0.2,0.5,0.5,0.7
			c0.3,0.2,0.9,0.3,1.7,0.5c1,0.2,1.7,0.4,2.3,0.7c0.6,0.3,1,0.6,1.3,1c0.3,0.4,0.4,0.9,0.4,1.6c0,0.7-0.2,1.3-0.6,1.8
			c-0.4,0.5-1,0.9-1.7,1.2c-0.7,0.3-1.5,0.4-2.4,0.4C147,19.1,146.1,19,145.4,18.7z"/>
	</g>
	<g>
		<path class="st0" d="M90.4,31.8c-0.8-0.7-1.3-1.8-1.3-3.1c0-0.3,0-0.8,0-1.4c0-0.6,0-1.1,0-1.4c0-1.3,0.5-2.3,1.4-3
			c0.9-0.7,2-1.1,3.5-1.1c1,0,1.9,0.2,2.6,0.5c0.7,0.3,1.3,0.7,1.7,1.2c0.4,0.5,0.6,1,0.6,1.5c0,0.1,0,0.2-0.1,0.2
			c-0.1,0.1-0.1,0.1-0.2,0.1H96c-0.1,0-0.2,0-0.2-0.1c-0.1,0-0.1-0.1-0.2-0.2c-0.1-0.3-0.3-0.5-0.6-0.7c-0.3-0.2-0.7-0.3-1.2-0.3
			c-1.2,0-1.8,0.6-1.9,1.9c0,0.3,0,0.7,0,1.3c0,0.6,0,1,0,1.3c0,1.3,0.7,2,1.9,2c0.6,0,1.1-0.1,1.4-0.4c0.4-0.3,0.5-0.8,0.5-1.4
			v-0.3h-1.4c-0.1,0-0.2,0-0.3-0.1c-0.1-0.1-0.1-0.2-0.1-0.3v-1.2c0-0.1,0-0.2,0.1-0.3c0.1-0.1,0.2-0.1,0.3-0.1h3.9
			c0.1,0,0.2,0,0.3,0.1c0.1,0.1,0.1,0.2,0.1,0.3v1.8c0,0.9-0.2,1.6-0.6,2.3c-0.4,0.6-1,1.1-1.7,1.5c-0.7,0.3-1.6,0.5-2.6,0.5
			C92.4,32.9,91.2,32.5,90.4,31.8z"/>
		<path class="st0" d="M100.6,32.6c-0.1-0.1-0.1-0.2-0.1-0.3v-10c0-0.1,0-0.2,0.1-0.3c0.1-0.1,0.2-0.1,0.3-0.1h4.3
			c1.4,0,2.4,0.3,3.2,0.9c0.8,0.6,1.2,1.5,1.2,2.6c0,0.7-0.2,1.3-0.5,1.8c-0.3,0.5-0.8,0.9-1.4,1.2l2.1,3.8c0,0.1,0,0.1,0,0.2
			c0,0.1,0,0.2-0.1,0.2c-0.1,0.1-0.1,0.1-0.2,0.1h-2.2c-0.3,0-0.5-0.1-0.6-0.4l-1.7-3.4h-1.5v3.4c0,0.1,0,0.2-0.1,0.3
			c-0.1,0.1-0.2,0.1-0.3,0.1h-2.1C100.8,32.7,100.7,32.7,100.6,32.6z M105.1,26.7c0.4,0,0.8-0.1,1-0.3c0.2-0.2,0.3-0.5,0.3-0.9
			c0-0.4-0.1-0.7-0.3-0.9c-0.2-0.2-0.6-0.4-1-0.4h-1.7v2.6H105.1z"/>
		<path class="st0" d="M111.4,32.6c-0.1-0.1-0.1-0.2-0.1-0.3V22.3c0-0.1,0-0.2,0.1-0.3c0.1-0.1,0.2-0.1,0.3-0.1h2.2
			c0.1,0,0.2,0,0.3,0.1c0.1,0.1,0.1,0.2,0.1,0.3v10.1c0,0.1,0,0.2-0.1,0.3c-0.1,0.1-0.2,0.1-0.3,0.1h-2.2
			C111.6,32.7,111.5,32.7,111.4,32.6z"/>
		<path class="st0" d="M116.5,32.6c-0.1-0.1-0.1-0.2-0.1-0.3v-10c0-0.1,0-0.2,0.1-0.3c0.1-0.1,0.2-0.1,0.3-0.1h4.1
			c1.5,0,2.7,0.4,3.6,1.1c0.8,0.7,1.3,1.8,1.3,3.1c0,0.3,0,0.7,0,1.2s0,0.9,0,1.2c-0.1,2.8-1.7,4.2-4.8,4.2h-4.1
			C116.6,32.7,116.5,32.7,116.5,32.6z M120.8,30.4c0.6,0,1.1-0.2,1.4-0.5c0.3-0.3,0.5-0.8,0.5-1.5c0-0.3,0-0.7,0-1.2
			c0-0.5,0-0.9,0-1.1c0-0.7-0.2-1.1-0.5-1.5c-0.3-0.3-0.8-0.5-1.5-0.5h-1.5v6.2H120.8z"/>
	</g>
</g>
</svg>
