<?xml version="1.0" encoding="utf-8"?>
<!-- Generator: Adobe Illustrator 21.0.0, SVG Export Plug-In . SVG Version: 6.00 Build 0)  -->
<svg version="1.1" id="Layer_1" xmlns="http://www.w3.org/2000/svg" xmlns:xlink="http://www.w3.org/1999/xlink" x="0px" y="0px"
	 viewBox="0 0 172 40" style="enable-background:new 0 0 172 40;" xml:space="preserve">
<style type="text/css">
	.st0{fill:#989898;}
</style>
<path id="logo" class="st0" d="M40.8,29.4v1.5c-2.3,3.2-6.5,5.2-11.7,5.2c-9.4,0-15.8-6.8-15.8-15.5c0-8.7,7.2-15.4,15.8-15.4
	c2.2,0,4.2,0.4,5.9,1V3.9c0,0,3.9,3.9,5.8,6v1.5c-1.7-1.8-5.2-3.3-8.4-3.3c-7.4,0-12,5.6-12,12.4c0,6.9,4.4,12.4,12,12.4
	C36.1,33,39.2,31.2,40.8,29.4z M41.1,20.6c0,4.9-3,9-8.2,9c-5.2,0-8.2-4-8.2-9c0-4.9,3-9,8.2-9C38.1,11.6,41.1,15.7,41.1,20.6z
	 M35.1,20.6c0-5-0.5-7.2-2.2-7.2c-1.7,0-2.2,2.2-2.2,7.2c0,5,0.5,7.2,2.2,7.2C34.6,27.7,35.1,25.5,35.1,20.6z M57.9,18.2
	c0-0.6,0-1.9-0.2-2.6c-0.5-1.9-1.9-3.4-4.3-3.4c-2.3,0-3.7,1.4-4.3,2.8h-0.1v-2.5h-6.4v1.5H44v13.3h-1.5v1.5h8.2v-1.5h-1.5v-9.7
	c0-1.5,0.5-2.6,1.8-2.6c1.3,0,1.7,1.2,1.7,2.6l0,11.2h7.1v-1.5h-2V18.2z M66.8,8h-1c-1.8,1.5-4,3.3-6,4.8v1.1h1.7v11.2
	c0,2.6,1.5,3.9,4,3.9c2.2,0,3.2-0.6,3.2-0.6v-1.5c0,0-0.5,0.2-1,0.2c-0.5,0-1.1-0.2-1.1-1V13.9h2v-1.5h-2L66.8,8L66.8,8z M77.5,8.1
	c0-3.2-6.3-3.2-6.3,0S77.5,11.3,77.5,8.1z M76.9,12.4h-6.7v1.5h1.5v13.3h-1.5v1.5h8.2v-1.5h-1.5V12.4z M95.1,18.2
	c0-0.6,0-1.9-0.2-2.6c-0.5-1.9-1.9-3.4-4.3-3.4c-2.3,0-3.7,1.4-4.3,2.8h-0.1v-2.5h-6.4v1.5h1.5v13.3h-1.5v1.5h8.2v-1.5h-1.5v-9.7
	c0-1.5,0.5-2.6,1.8-2.6c1.3,0,1.7,1.2,1.7,2.6l0,11.2h7.1v-1.5h-2L95.1,18.2L95.1,18.2L95.1,18.2z M111.7,20.1c0,0.3,0,0.9,0,1.2
	h-8.7c0.1,3.8,2.4,4.6,3.9,4.6c1.7,0,2.9-0.7,3.6-1.5l0.9,0.8c-1.2,2.3-3.2,3.8-6.4,3.8c-4.9,0-7.5-3.7-7.5-8.4
	c0-4.7,2.5-8.5,7.5-8.5C109.8,12.1,111.7,15.5,111.7,20.1z M106.5,19.7c0-4.4-0.3-5.9-1.8-5.9c-1.5,0-1.8,1.6-1.8,5.9H106.5z
	 M128.1,18.2c0-0.6,0-1.9-0.2-2.6c-0.5-1.9-1.9-3.4-4.3-3.4c-2.3,0-3.7,1.4-4.3,2.8h-0.1v-2.5h-6.4v1.5h1.5v13.3h-1.5v1.5h8.2v-1.5
	h-1.5v-9.7c0-1.5,0.5-2.6,1.8-2.6c1.3,0,1.7,1.2,1.7,2.6l0,11.2h7.1v-1.5h-2L128.1,18.2L128.1,18.2L128.1,18.2z M137,8h-1
	c-1.8,1.5-4,3.3-6,4.8v1.1h1.7v11.2c0,2.6,1.5,3.9,4,3.9c2.2,0,3.2-0.6,3.2-0.6v-1.5c0,0-0.5,0.2-1,0.2c-0.5,0-1.1-0.2-1.1-1V13.9h2
	v-1.5h-2L137,8C137,8,137,8,137,8z M153.6,27.2h1.7v1.5h-6.6v-2h-0.1c-1,1.3-2.2,2.3-4.2,2.3c-2.7,0-4.3-2.3-4.3-5
	c0-3.3,2.3-5.4,6-5.4c1.5,0,2.3,0.3,2.3,0.3v-1c0-2-1.2-3-3-3c-2.5,0-3.7,1.9-3.7,1.9l-0.9-1.1c1.6-2.5,4.2-3.7,6.5-3.7
	c4,0,6.3,2.3,6.3,5.9V27.2z M148.4,20.7c-0.1-0.1-0.5-0.3-1.1-0.3c-1.5,0-1.9,1.5-1.9,3.1c0,1.5,0.5,2.8,1.8,2.8
	c0.6,0,1-0.3,1.2-0.5V20.7z M162.2,27.2V6.4h-6.9v1.5h1.8v20.9h7.2v-1.5H162.2z"/>
</svg>
