<?xml version="1.0" encoding="utf-8"?>
<!-- Generator: Adobe Illustrator 21.0.0, SVG Export Plug-In . SVG Version: 6.00 Build 0)  -->
<svg version="1.1" id="Layer_1" xmlns="http://www.w3.org/2000/svg" xmlns:xlink="http://www.w3.org/1999/xlink" x="0px" y="0px"
	 viewBox="0 0 172 40" style="enable-background:new 0 0 172 40;" xml:space="preserve">
<style type="text/css">
	.st0{fill:#989898;}
</style>
<path id="red_1_" class="st0" d="M101,28.5C101,28.5,101,28.5,101,28.5c-4.4,3.1-9.7,6.5-15.3,9.9l-0.2,0.1c-0.1,0.1-0.1,0.2,0,0.2
	c0.1,0.1,0.2,0.1,0.2,0l0.2-0.1c4.8-2.5,10.3-5.5,15.8-8.5c0,0,0.1,0,0.1-0.1C101.5,29.7,101.2,29.1,101,28.5z M130.1,5
	c-7-7.7-51.9-0.8-71,3.4l-0.4,0.1c-0.1,0-0.1,0.1-0.1,0.2c0,0.1,0.1,0.1,0.2,0.1l0.4-0.1C75,5.9,107.9,2,115,9
	c2.2,2.2,1.7,4.9-0.9,8.2c1.3,0.9,2.3,2.2,2.7,4C126.7,14.6,133.2,8.4,130.1,5L130.1,5z"/>
<path id="blue" class="st0" d="M55.3,28.1l0.8-4.3c0.1-0.6,0.2-1,0.2-1.5c0-1.2-1-2.1-4.2-2.1c-2,0-3.9,0.2-5.9,0.5l-0.8,2.3
	c1.5-0.4,4.5-0.9,6.1-0.6c0.6,0.1,0.7,0.4,0.6,0.8c0,0.3-0.2,0.4-0.5,0.5c-0.2,0.1-0.7,0.3-1.5,0.3c-1.5,0.1-2.6,0.3-3.3,0.4
	c-0.8,0.1-1.3,0.3-1.8,0.5c-0.4,0.2-0.9,0.4-1.2,0.8c-0.3,0.4-0.5,0.9-0.5,1.3c0,0.7,0.3,1,0.8,1.5c0.6,0.5,1.4,0.6,2.8,0.6
	c0.8,0,1.4-0.1,2.1-0.3c0.7-0.2,1.5-0.5,2.1-0.9l0,1.1h4.4l0-0.2C55.4,28.8,55.2,28.4,55.3,28.1z M51.5,26.1
	c-0.1,0.2-0.2,0.4-0.4,0.6c-0.2,0.2-0.5,0.4-0.9,0.5c-0.4,0.1-0.7,0.2-1.1,0.2c-0.5,0-0.8-0.1-1.1-0.2c-0.2-0.1-0.3-0.3-0.3-0.6
	c0-0.2,0.2-0.4,0.4-0.6c0.2-0.2,0.6-0.3,1.2-0.4c0.8-0.1,1.3-0.2,1.7-0.3s0.5-0.1,0.7-0.2C51.6,25.6,51.5,26,51.5,26.1z M75.5,18.4
	c-0.1,0.7-1.3,1.3-2.5,1.3s-2.2-0.6-2-1.3c0.1-0.7,1.3-1.3,2.5-1.3C74.7,17.1,75.6,17.7,75.5,18.4z M70.7,20.5h4.2l-1.5,8.7h-4.2
	L70.7,20.5z M94.4,23.7c0.1-0.6,0.2-1,0.2-1.5c0-1.2-1-2.1-4.2-2.1c-2,0-3.9,0.2-5.9,0.5l-0.8,2.3c1.5-0.4,4.5-0.9,6.1-0.6
	c0.6,0.1,0.7,0.4,0.6,0.8c-0.1,0.3-0.2,0.4-0.5,0.5c-0.2,0.1-0.7,0.3-1.5,0.3c-1.5,0.1-2.6,0.3-3.3,0.4c-0.8,0.1-1.3,0.3-1.8,0.5
	s-0.9,0.4-1.2,0.8c-0.3,0.4-0.5,0.9-0.5,1.3c0,0.7,0.3,1,0.8,1.5c0.6,0.5,1.4,0.6,2.8,0.6c0.9,0,1.4-0.1,2.1-0.3
	c0.7-0.2,1.5-0.5,2.1-0.9l0,1.1H94l0-0.1c-0.4-0.2-0.5-0.5-0.4-0.9L94.4,23.7z M89.8,26.1c-0.1,0.2-0.2,0.4-0.4,0.6
	c-0.2,0.2-0.5,0.4-0.9,0.5c-0.4,0.1-0.7,0.2-1.1,0.2c-0.5,0-0.8-0.1-1.1-0.2c-0.2-0.1-0.3-0.3-0.3-0.6c0.1-0.2,0.2-0.4,0.4-0.6
	c0.2-0.2,0.6-0.3,1.2-0.4c0.8-0.1,1.3-0.2,1.7-0.3c0.3-0.1,0.5-0.1,0.7-0.2C89.9,25.7,89.8,26,89.8,26.1z M39.2,26.4
	c1.4,0,2.1-0.1,3.5-0.4l-0.6,3.1c-1.4,0.1-2.9,0.2-4.3,0.2c-2.5,0-8-1.1-7.5-5.7c0.6-4.5,5.2-6.7,10.1-6.7c1.4,0,2.5,0.1,4.2,0.7
	l-0.5,3c-1.2-0.7-2.1-0.9-3.3-0.9c-3.7,0-5.2,2.6-5.2,3.8C35.6,25.4,37.2,26.4,39.2,26.4z M83.3,22.1h-2.1l-1.3,7c0,0-4.3,0-4.3,0
	l1.3-7h-1.6l0.3-1.8h1.7l0,0l0.3-1.8l4.4-1l-0.5,2.7h2.2L83.3,22.1z M96.7,17l4.2,0.1l-2.1,12h-4.3L96.7,17z M69.1,22.4
	c-0.3-0.7-0.8-1.3-1.5-1.7c-0.7-0.4-1.3-0.4-2.3-0.4c-0.9,0-1.7,0.2-2.4,0.5s-1.2,0.6-1.5,1.1l0.3-1.5h-3.7l-2.1,11.6H60l0.7-4
	c0.3,0.3,0.5,0.5,0.7,0.6c0.2,0.1,0.5,0.3,0.8,0.3c0.4,0.1,0.8,0.1,1.3,0.1c1.5,0,2.5-0.2,3.6-1.1c1.2-0.8,1.9-2,2.1-3.4
	C69.4,23.9,69.3,23.1,69.1,22.4z M65.1,24.5c-0.1,0.4-0.2,0.8-0.5,1.2c-0.2,0.3-0.5,0.5-0.8,0.7c-0.3,0.1-0.7,0.2-1.1,0.2
	c-0.6,0-1-0.2-1.3-0.5c-0.3-0.3-0.4-0.9-0.3-1.6c0.1-0.6,0.4-1.2,0.8-1.5c0.4-0.3,1-0.5,1.5-0.5c0.6,0,1,0.2,1.3,0.5
	C65.1,23.3,65.2,23.8,65.1,24.5z M134.5,23.7c-0.1-1.3-1.2-1.9-2.4-1.9c-2.9,0-6.3,3.5-6.2,7.2c0,0.1,0,0.2,0,0.3
	c-0.3,0.5-1,1.6-1.6,1.6c-0.2,0-0.4-0.1-0.4-0.4c0-0.4,0.1-1,0.3-1.4l1.1-4c0.3-1.1,0.4-1.8,0.4-2.2c0-0.7-0.4-1.1-1.1-1.1
	c-1.1,0-2.6,0.8-5.8,4.4h-0.1l0.4-1.8c0.2-1,0.4-2,0.6-2.7c-1.1,0.4-2.6,0.8-3.5,1c-0.1-3.6-2.4-5.9-5.9-5.9c-5.3,0-8.9,4.7-8.7,9.4
	c0.1,3.6,2.4,5.9,5.9,5.9c5.3,0,8.6-4.2,8.7-8.8c0.3,0,0.7-0.1,0.9-0.1c0.3,0,0.6,0.1,0.6,0.4c0,0.2-0.3,1.5-0.4,1.8l-0.7,2.9
	c-0.3,1.2-0.6,2.4-0.8,3.5h1.7l1-4.6c2.9-3,4-4,4.7-4c0.3,0,0.5,0.2,0.5,0.5c0,0.5-0.3,1.7-0.4,2.1l-1,3.4c-0.2,0.8-0.4,1.4-0.4,1.9
	c0,0.7,0.5,1.1,1.2,1.1c1.2,0,2-1.1,2.7-2.3c0.4,1.5,1.6,2.3,3,2.3c2,0,3.8-1.4,4.6-3.1l-0.3-0.2c-0.7,1-2,2.1-3.3,2.1
	c-1.5,0-2.3-1-2.3-2.3c0-0.5,0-0.8,0.1-1.1C130.4,27.6,134.6,26.7,134.5,23.7z M131.7,22.4c0.7,0,1.1,0.5,1.1,1.2
	c0.1,1.9-2.2,3.6-5,3.6C128.2,25.8,130,22.4,131.7,22.4z M107.9,31.4c-2.2,0-4-2.2-4-4.9c-0.1-3.6,2.3-8.9,6-8.9
	c2.2,0,4,2.2,4.1,4.9C114.1,26.1,112.2,31.4,107.9,31.4z"/>
</svg>
