<?xml version="1.0" encoding="utf-8"?>
<!-- Generator: Adobe Illustrator 21.0.0, SVG Export Plug-In . SVG Version: 6.00 Build 0)  -->
<svg version="1.1" id="Layer_1" xmlns="http://www.w3.org/2000/svg" xmlns:xlink="http://www.w3.org/1999/xlink" x="0px" y="0px"
	 viewBox="0 0 172 40" style="enable-background:new 0 0 172 40;" xml:space="preserve">
<style type="text/css">
	.st0{fill:#989898;}
</style>
<path id="text" class="st0" d="M63.8,9.8c-8.1,0-11.8,5.3-11.8,10.3c0,2.9,1.1,5.5,2.9,7.2c2.1,1.9,4.8,2.9,8.3,2.9
	c3.1,0,5.6-0.7,6.8-1.2l0.3-0.1v-9.4h-3.4v7.3c-0.5,0.2-1.5,0.4-3.5,0.4c-4.8,0-7.9-2.9-7.9-7.2s3.2-7.2,8.1-7.2
	c1.8,0,3.3,0.3,4.7,0.9l0.4,0.2l0.9-2.9l-0.4-0.1C68.4,10.4,66.3,9.8,63.8,9.8z M142.1,9.8v2.9l6.5,0c3,0,5.2,0.7,6.6,2.1
	c1.1,1.1,1.7,2.8,1.7,4.7c0,2.2-0.7,4-2,5.3c-1.5,1.5-3.9,2.3-6.8,2.3c-0.9,0-1.9,0-2.6-0.1v-9h-3.4v11.8l0.4,0
	c1.5,0.1,3.1,0.3,5.2,0.3c4.2,0,7.7-1.1,9.8-3.1c2-1.9,3-4.6,3-7.5c0-2.8-1-5.1-2.9-6.9c-2-1.8-5-2.8-9.1-2.8L142.1,9.8L142.1,9.8z
	 M76.3,10v19.9h3.4V10H76.3z M103.1,10v19.9h12.6V27h-9.2v-5.9h8.2v-2.9h-8.2V13h8.7v-3H103.1z M127.1,10l-7.5,19.9h3.5l2.2-6.1h7
	l2.3,6.1h3.5L130.5,10H127.1L127.1,10z M86.3,10v19.9h12.5v-3h-9.1V10H86.3z M128.7,13.9c0.2,0.6,2.1,5.7,2.6,7.1h-5.2
	C126.2,21,128.5,14.5,128.7,13.9z"/>
<path id="red" class="st0" d="M44.9,2.5c0,0-0.1,0.1-0.1,0.1v0c-7,2.4-14,11.7-16.7,22.4c-0.4,1.6-0.7,3.2-1,4.9
	c0,0-1.1,0.1,0.1-5.3c-7.2-4.8-4.4-20,17.6-22.1l0,0L44.9,2.5C44.9,2.4,44.9,2.4,44.9,2.5z M43.7,5.9L43.7,5.9L43.7,5.9L43.7,5.9z
	 M43.7,5.9c0,0-0.1,0-0.1,0.1c-1.8,3.6-2.3,8.6-3.7,12.6c-1.6,4.5-4.4,7.5-8.8,7.2v10.8c0,0-11.6-5.3-11.6-13.7V7L29,6.1h0
	c0,0,0.1,0,0.1-0.1c0-0.1,0-0.1-0.1-0.1H18.5v16.9c0,9.5,12.6,14.8,12.6,14.8s12.7-5.3,12.7-14.8V5.9C43.8,5.9,43.7,5.9,43.7,5.9z"
	/>
</svg>
