<?xml version="1.0" encoding="utf-8"?>
<!-- Generator: Adobe Illustrator 21.0.0, SVG Export Plug-In . SVG Version: 6.00 Build 0)  -->
<svg version="1.1" id="Layer_1" xmlns="http://www.w3.org/2000/svg" xmlns:xlink="http://www.w3.org/1999/xlink" x="0px" y="0px"
	 viewBox="0 0 172 40" style="enable-background:new 0 0 172 40;" xml:space="preserve">
<style type="text/css">
	.st0{fill:#989898;}
</style>
<path id="logo" class="st0" d="M105.5,17.5c0,0.8,1.2,1.2,2.9,1.8c3,1.1,6.8,2.6,6.8,7c0,4.2-3.5,7.2-9.6,7.2c-3.5,0-6.8-1-9.1-2.7
	l1-6.5c2.2,2,5.6,3.4,8.1,3.4c1.7,0,2.5-0.7,2.5-1.4c0-0.9-1.3-1.3-2.9-1.9c-2.7-0.9-6.7-2.2-6.7-6.6c0-4.1,3.3-7.4,9.5-7.4
	c3.1,0,5.8,0.9,7.7,1.9l-0.9,6c-1.6-0.9-4.2-2.1-6.8-2.1C106.4,16.2,105.5,16.8,105.5,17.5z M44.6,10.9l-3.3,22H35h-1l0.5-2.1
	c-1.8,2.1-4,2.8-6.6,2.8c-4.6,0-8.3-3.9-8.3-10c0-7.6,5.1-13.2,10.9-13.2c1.8,0,5.3,0.2,6.5,2.5l0.4-1.9l0,0v-0.1L44.6,10.9
	L44.6,10.9z M35.5,21.8c0-2.4-1.9-4.4-4.4-4.4s-4.4,2-4.4,4.4s1.9,4.4,4.4,4.4C33.6,26.2,35.6,24.3,35.5,21.8z M97.5,10.9l-3.3,22
	H88h-1l0.5-2.1c-1.8,2.1-4,2.8-6.6,2.8c-4.6,0-8.3-3.9-8.3-10c0-7.6,5.1-13.2,10.9-13.2c1.8,0,5.3,0.2,6.5,2.5l0.4-1.9H91v-0.1
	L97.5,10.9L97.5,10.9z M88.5,21.8c0-2.4-1.9-4.4-4.4-4.4s-4.4,2-4.4,4.4s1.9,4.4,4.4,4.4C86.6,26.2,88.5,24.3,88.5,21.8z
	 M152.5,10.9l-3.3,22h-6.2h-1l0.5-2.1c-1.8,2.1-4,2.8-6.6,2.8c-4.6,0-8.3-3.9-8.3-10c0-7.6,5.1-13.2,10.9-13.2
	c1.8,0,5.3,0.2,6.5,2.5l0.4-1.9h0.7v-0.1L152.5,10.9L152.5,10.9z M143.4,21.8c0-2.4-1.9-4.4-4.4-4.4s-4.4,2-4.4,4.4s1.9,4.4,4.4,4.4
	C141.5,26.2,143.4,24.3,143.4,21.8z M50.8,11.7c2,0.5,3.9-0.8,4.4-2.7c0.5-2-0.7-3.9-2.7-4.4c-2-0.5-3.9,0.7-4.4,2.7
	C47.6,9.2,48.8,11.2,50.8,11.7z M51.6,13.2c-1.6,0-3-0.7-3.9-1.8L44.5,33h7.3L55,12.1C54,12.8,52.9,13.2,51.6,13.2z M68.7,10.9
	c-2,0-3.7,1.6-3.7,3.7s1.6,3.7,3.7,3.7c2,0,3.7-1.6,3.7-3.7S70.8,10.9,68.7,10.9z M65.1,10.9h-6.9l-3.3,22h7.3l2.3-15.5
	c-0.6-0.8-0.9-1.8-0.9-2.9C63.6,13.2,64.2,11.9,65.1,10.9z M123.6,4.5c-2,0-3.7,1.6-3.7,3.7s1.6,3.7,3.7,3.7s3.7-1.6,3.7-3.7
	S125.6,4.5,123.6,4.5z M119.5,11.3l-3.2,21.6h7.3l3.2-20.8c-0.9,0.7-2,1.2-3.2,1.2C122,13.2,120.5,12.5,119.5,11.3z"/>
</svg>
